<svg width="454" height="233" viewBox="0 0 454 233" fill="none" xmlns="http://www.w3.org/2000/svg">
<g clip-path="url(#clip0_4841_38968)">
<path d="M139.443 210.004C139.443 197.704 178.143 187.604 225.843 187.604C273.543 187.604 312.243 197.704 312.243 210.104C312.226 211.507 311.772 212.871 310.943 214.004C303.743 224.504 268.343 232.504 225.843 232.504C178.143 232.504 139.443 222.404 139.443 210.004Z" fill="#55BB77"/>
<path d="M122.243 194.704H39.0428C36.9105 194.709 34.8385 195.411 33.1428 196.704L1.14276 221.804C0.811203 222.058 0.567169 222.409 0.444679 222.808C0.322189 223.208 0.327349 223.635 0.459438 224.031C0.591527 224.428 0.843964 224.773 1.18156 225.019C1.51915 225.265 1.92508 225.399 2.34276 225.404H90.2428C92.4725 225.382 94.6131 224.526 96.2428 223.004L123.143 197.004C123.339 196.823 123.475 196.587 123.535 196.327C123.595 196.067 123.575 195.795 123.478 195.546C123.381 195.298 123.211 195.085 122.99 194.934C122.77 194.784 122.51 194.704 122.243 194.704Z" fill="#55BB77"/>
<path d="M452.343 194.703H369.043C366.911 194.708 364.839 195.411 363.143 196.703L331.143 221.803C330.811 222.057 330.567 222.408 330.445 222.808C330.322 223.207 330.327 223.635 330.459 224.031C330.592 224.427 330.844 224.772 331.182 225.018C331.519 225.264 331.925 225.399 332.343 225.403H420.243C422.472 225.381 424.613 224.525 426.243 223.003L453.143 197.003C453.356 196.839 453.513 196.612 453.59 196.353C453.667 196.095 453.661 195.819 453.573 195.565C453.484 195.31 453.318 195.09 453.097 194.935C452.876 194.781 452.612 194.699 452.343 194.703Z" fill="#55BB77"/>
<path d="M139.443 205.903C139.443 193.603 178.143 183.503 225.843 183.503C273.543 183.503 312.243 193.603 312.243 206.003C312.226 207.407 311.772 208.771 310.943 209.903C303.743 220.403 268.343 228.403 225.843 228.403C178.143 228.403 139.443 218.303 139.443 205.903Z" fill="#B0DFC0"/>
<path d="M310.943 209.903C303.743 220.403 268.443 228.403 225.843 228.403C178.143 228.403 139.443 218.303 139.443 205.903C139.443 205.903 154.443 224.003 222.843 224.003C281.643 224.103 305.343 213.003 310.943 209.903Z" fill="#B0DFC0"/>
<path d="M275.043 200.703C271.743 197.103 250.943 194.303 225.843 194.303C199.643 194.303 178.243 197.303 176.343 201.103C177.243 198.903 183.243 191.303 225.843 191.303C265.043 191.303 273.343 198.103 275.043 200.703Z" fill="#B0DFC0"/>
<path d="M122.943 194.703L105.443 69.5033C105.346 68.8586 105.02 68.2705 104.523 67.8478C104.027 67.425 103.395 67.1961 102.743 67.2033H79.1428C78.754 67.2056 78.3701 67.2906 78.0166 67.4528C77.6632 67.6149 77.3483 67.8504 77.0929 68.1437C76.8375 68.4369 76.6475 68.7811 76.5354 69.1535C76.4233 69.5258 76.3917 69.9178 76.4428 70.3033L82.3428 117.603C82.4 118.043 82.3624 118.489 82.2324 118.913C82.1024 119.336 81.8832 119.727 81.5894 120.059C81.2956 120.39 80.9342 120.655 80.5294 120.836C80.1246 121.016 79.6859 121.107 79.2428 121.103H52.2428C51.4266 121.109 50.6396 120.8 50.0441 120.242C49.4487 119.684 49.0902 118.918 49.0428 118.103L46.8428 69.9033C46.8087 69.2075 46.5103 68.551 46.0085 68.0678C45.5067 67.5846 44.8394 67.3111 44.1428 67.3033H22.0428C21.6777 67.296 21.315 67.3641 20.9775 67.5036C20.6399 67.643 20.3348 67.8507 20.0813 68.1136C19.8278 68.3765 19.6314 68.6889 19.5043 69.0313C19.3772 69.3737 19.3222 69.7387 19.3428 70.1033L22.3428 152.503C22.4034 153.765 22.9452 154.955 23.8566 155.829C24.7681 156.704 25.9799 157.195 27.2428 157.203H87.3428L92.0428 194.903H122.943V194.703Z" fill="#016D25"/>
<path d="M453.043 194.703L435.543 69.5033C435.446 68.8586 435.12 68.2705 434.623 67.8478C434.127 67.425 433.495 67.1961 432.843 67.2033H409.243C408.854 67.2056 408.47 67.2906 408.117 67.4528C407.763 67.6149 407.448 67.8504 407.193 68.1437C406.937 68.4369 406.747 68.7811 406.635 69.1535C406.523 69.5258 406.492 69.9178 406.543 70.3033L412.443 117.603C412.5 118.043 412.462 118.489 412.332 118.913C412.202 119.336 411.983 119.727 411.689 120.059C411.396 120.39 411.034 120.655 410.629 120.836C410.225 121.016 409.786 121.107 409.343 121.103H382.343C381.527 121.109 380.74 120.8 380.144 120.242C379.549 119.684 379.19 118.918 379.143 118.103L376.943 69.9033C376.909 69.2075 376.61 68.551 376.108 68.0678C375.607 67.5846 374.939 67.3111 374.243 67.3033H352.243C351.878 67.296 351.515 67.3641 351.177 67.5036C350.84 67.643 350.535 67.8507 350.281 68.1136C350.028 68.3765 349.831 68.6889 349.704 69.0313C349.577 69.3737 349.522 69.7387 349.543 70.1033L352.543 152.503C352.603 153.765 353.145 154.955 354.057 155.829C354.968 156.704 356.18 157.195 357.443 157.203H417.543L422.243 194.903H453.043V194.703Z" fill="#016D25"/>
<path d="M104.742 70.8032L91.5418 220.403C91.4313 221.761 90.8152 223.029 89.8153 223.955C88.8154 224.881 87.5045 225.397 86.1418 225.403H66.3418C65.5716 225.403 64.8103 225.24 64.1081 224.924C63.4059 224.607 62.7788 224.146 62.2683 223.569C61.7579 222.992 61.3756 222.314 61.147 221.579C60.9183 220.843 60.8483 220.068 60.9418 219.303L69.2418 149.203L9.94177 150.203C9.17567 150.216 8.4162 150.06 7.71782 149.744C7.01945 149.429 6.39949 148.963 5.90243 148.38C5.40537 147.797 5.04352 147.111 4.84285 146.372C4.64218 145.632 4.60766 144.858 4.74177 144.103L4.94177 142.803L18.5418 69.9032C18.7252 68.9222 19.245 68.036 20.0116 67.3971C20.7783 66.7582 21.7438 66.4067 22.7418 66.4032H41.6418C42.2607 66.4135 42.8703 66.5566 43.4292 66.8227C43.9881 67.0888 44.4834 67.4718 44.8815 67.9458C45.2797 68.4198 45.5715 68.9738 45.7371 69.5702C45.9028 70.1667 45.9385 70.7918 45.8418 71.4032L37.7418 117.403C37.6651 117.837 37.6856 118.283 37.8019 118.708C37.9182 119.134 38.1273 119.528 38.4142 119.863C38.7011 120.197 39.0587 120.464 39.4612 120.644C39.8636 120.824 40.301 120.913 40.7418 120.903H69.0418L75.6418 69.8032C75.7803 68.8381 76.2599 67.9546 76.9937 67.3125C77.7274 66.6705 78.6668 66.3124 79.6418 66.3032H100.742C101.3 66.3355 101.847 66.4776 102.35 66.7213C102.853 66.965 103.304 67.3056 103.675 67.7236C104.047 68.1416 104.332 68.6287 104.515 69.1572C104.698 69.6856 104.775 70.245 104.742 70.8032Z" fill="#B0DFC0"/>
<path d="M69.6417 142.803L69.1417 149.203L9.84167 150.203C9.07558 150.216 8.3161 150.06 7.61773 149.744C6.91935 149.429 6.2994 148.963 5.80233 148.38C5.30527 147.797 4.94342 147.111 4.74275 146.372C4.54208 145.632 4.50756 144.858 4.64167 144.103L4.84167 142.803H69.6417Z" fill="#B0DFC0"/>
<path d="M104.742 70.8033L91.5416 220.403C91.4312 221.762 90.8151 223.029 89.8152 223.955C88.8152 224.881 87.5043 225.398 86.1416 225.403H83.1416L98.8416 66.4033H100.742C101.297 66.4164 101.845 66.5422 102.351 66.773C102.856 67.0039 103.31 67.3351 103.684 67.7465C104.058 68.1579 104.345 68.641 104.526 69.1664C104.708 69.6919 104.781 70.2488 104.742 70.8033Z" fill="#B0DFC0"/>
<path d="M37.6427 117.503C37.566 117.938 37.5866 118.383 37.7029 118.809C37.8191 119.234 38.0283 119.628 38.3152 119.963C38.6021 120.297 38.9596 120.564 39.3621 120.744C39.7646 120.924 40.202 121.013 40.6427 121.003H34.8427C34.3424 121.007 33.8473 120.9 33.3925 120.692C32.9376 120.483 32.534 120.178 32.2099 119.796C31.8858 119.415 31.6492 118.967 31.5166 118.485C31.3841 118.002 31.3589 117.497 31.4427 117.003L40.3427 66.5034H41.6427C42.2617 66.5137 42.8712 66.6568 43.4301 66.9229C43.9891 67.189 44.4843 67.572 44.8825 68.046C45.2807 68.52 45.5724 69.074 45.7381 69.6704C45.9037 70.2669 45.9394 70.892 45.8427 71.5034L37.6427 117.503Z" fill="#B0DFC0"/>
<path d="M434.742 70.8032L421.542 220.403C421.431 221.761 420.815 223.029 419.815 223.955C418.815 224.881 417.504 225.397 416.142 225.403H396.342C395.572 225.403 394.81 225.24 394.108 224.924C393.406 224.607 392.779 224.146 392.268 223.569C391.758 222.992 391.376 222.314 391.147 221.579C390.918 220.843 390.848 220.068 390.942 219.303L399.242 149.203L339.942 150.203C339.176 150.216 338.416 150.06 337.718 149.744C337.019 149.429 336.399 148.963 335.902 148.38C335.405 147.797 335.044 147.111 334.843 146.372C334.642 145.632 334.608 144.858 334.742 144.103L334.942 142.803L348.542 69.9032C348.725 68.9222 349.245 68.036 350.012 67.3971C350.778 66.7582 351.744 66.4067 352.742 66.4032H371.642C372.261 66.4135 372.87 66.5566 373.429 66.8227C373.988 67.0888 374.483 67.4718 374.882 67.9458C375.28 68.4198 375.571 68.9738 375.737 69.5702C375.903 70.1667 375.938 70.7918 375.842 71.4032L367.742 117.403C367.665 117.837 367.686 118.283 367.802 118.708C367.918 119.134 368.127 119.528 368.414 119.863C368.701 120.197 369.059 120.464 369.461 120.644C369.864 120.824 370.301 120.913 370.742 120.903H399.042L405.642 69.8032C405.78 68.8381 406.26 67.9546 406.994 67.3125C407.727 66.6705 408.667 66.3124 409.642 66.3032H430.742C431.306 66.3178 431.861 66.4481 432.373 66.6859C432.885 66.9238 433.342 67.2642 433.717 67.686C434.092 68.1078 434.377 68.6022 434.553 69.1383C434.729 69.6745 434.793 70.2412 434.742 70.8032Z" fill="#B0DFC0"/>
<path d="M399.742 142.803L399.242 149.203L339.942 150.203C339.176 150.216 338.416 150.06 337.718 149.744C337.019 149.429 336.399 148.963 335.902 148.38C335.405 147.797 335.044 147.111 334.843 146.372C334.642 145.632 334.608 144.858 334.742 144.103L334.942 142.803H399.742Z" fill="#B0DFC0"/>
<path d="M434.742 70.8035L421.542 220.403C421.431 221.762 420.815 223.029 419.815 223.955C418.815 224.881 417.505 225.398 416.142 225.403H413.142L428.842 66.4035H430.742C431.303 66.3989 431.859 66.5129 432.373 66.7378C432.887 66.9628 433.348 67.2937 433.726 67.709C434.103 68.1243 434.389 68.6146 434.564 69.1478C434.739 69.681 434.8 70.2452 434.742 70.8035Z" fill="#B0DFC0"/>
<path d="M367.743 117.503C367.666 117.938 367.687 118.383 367.803 118.809C367.919 119.234 368.128 119.628 368.415 119.963C368.702 120.297 369.06 120.564 369.462 120.744C369.865 120.924 370.302 121.013 370.743 121.003H364.943C364.442 121.007 363.947 120.9 363.493 120.692C363.038 120.483 362.634 120.178 362.31 119.796C361.986 119.415 361.749 118.967 361.617 118.485C361.484 118.002 361.459 117.497 361.543 117.003L370.443 66.5034H371.743C372.362 66.5137 372.971 66.6568 373.53 66.9229C374.089 67.189 374.584 67.572 374.983 68.046C375.381 68.52 375.673 69.074 375.838 69.6704C376.004 70.2669 376.04 70.892 375.943 71.5034L367.743 117.503Z" fill="#B0DFC0"/>
<path opacity="0.28" d="M186.344 101.301L165.844 205.301C164.744 210.901 168.344 216.201 173.244 216.201H281.844C286.644 216.201 290.244 211.101 289.344 205.701L272.544 101.701C271.844 97.5006 268.744 94.5006 265.044 94.5006H193.844C190.244 94.4006 187.144 97.3006 186.344 101.301Z" fill="#FEC272"/>
<path d="M278.942 107.804L288.842 140.704C288.881 140.87 288.956 141.025 289.062 141.159C289.168 141.293 289.302 141.402 289.454 141.478C289.607 141.555 289.775 141.597 289.945 141.601C290.116 141.605 290.285 141.572 290.442 141.504C290.711 141.399 290.932 141.197 291.062 140.939C291.191 140.68 291.22 140.382 291.142 140.104L284.642 106.404C284.539 105.978 284.346 105.581 284.075 105.237C283.804 104.894 283.463 104.613 283.073 104.413C282.684 104.214 282.256 104.101 281.819 104.082C281.383 104.063 280.947 104.139 280.542 104.304C279.897 104.596 279.381 105.111 279.087 105.754C278.792 106.397 278.741 107.125 278.942 107.804Z" fill="#FEC272"/>
<path d="M260.242 119.702L266.642 145.102C266.665 145.209 266.71 145.31 266.773 145.399C266.837 145.488 266.918 145.562 267.012 145.619C267.106 145.675 267.21 145.711 267.318 145.726C267.427 145.74 267.537 145.732 267.642 145.702C267.735 145.678 267.822 145.635 267.897 145.575C267.973 145.516 268.036 145.443 268.083 145.359C268.13 145.275 268.159 145.182 268.169 145.086C268.179 144.991 268.17 144.894 268.142 144.802L264.042 118.902C263.992 118.61 263.876 118.333 263.705 118.092C263.534 117.85 263.31 117.65 263.051 117.506C262.792 117.362 262.504 117.278 262.208 117.26C261.912 117.242 261.616 117.291 261.342 117.402C260.929 117.61 260.598 117.948 260.399 118.364C260.199 118.781 260.144 119.251 260.242 119.702Z" fill="#FEC272"/>
<path d="M176.842 111.003L168.542 136.303C168.512 136.415 168.458 136.519 168.383 136.607C168.308 136.695 168.215 136.766 168.11 136.813C168.005 136.861 167.89 136.885 167.775 136.883C167.659 136.882 167.545 136.854 167.442 136.803C167.255 136.721 167.103 136.576 167.011 136.394C166.92 136.211 166.895 136.002 166.942 135.803L172.942 109.903C173.018 109.618 173.154 109.351 173.341 109.122C173.528 108.893 173.762 108.706 174.027 108.573C174.291 108.441 174.581 108.366 174.877 108.354C175.172 108.342 175.467 108.393 175.742 108.503C176.201 108.712 176.566 109.082 176.769 109.543C176.972 110.005 176.998 110.524 176.842 111.003Z" fill="#FEC272"/>
<path d="M193.342 118.802L182.542 165.802C182.519 165.909 182.474 166.01 182.41 166.099C182.346 166.188 182.265 166.263 182.172 166.319C182.078 166.375 181.974 166.411 181.865 166.426C181.757 166.44 181.647 166.432 181.542 166.402C181.449 166.378 181.362 166.335 181.286 166.276C181.21 166.216 181.147 166.143 181.1 166.059C181.054 165.975 181.025 165.882 181.014 165.787C181.004 165.691 181.014 165.594 181.042 165.502L189.542 118.002C189.592 117.71 189.707 117.433 189.879 117.192C190.05 116.95 190.273 116.75 190.533 116.606C190.792 116.462 191.08 116.378 191.375 116.36C191.671 116.342 191.967 116.391 192.242 116.502C192.689 116.666 193.055 116.998 193.261 117.428C193.466 117.858 193.495 118.351 193.342 118.802Z" fill="#FEC272"/>
<path d="M216.242 124.299L211.042 158.399C211.028 158.511 210.989 158.618 210.927 158.712C210.866 158.806 210.784 158.885 210.688 158.943C210.591 159.001 210.483 159.036 210.371 159.045C210.259 159.055 210.147 159.04 210.042 158.999C209.855 158.938 209.695 158.816 209.586 158.653C209.477 158.49 209.426 158.295 209.442 158.099L212.242 123.699C212.285 123.412 212.391 123.138 212.552 122.896C212.712 122.653 212.923 122.449 213.171 122.297C213.418 122.144 213.696 122.048 213.984 122.014C214.273 121.98 214.566 122.009 214.842 122.099C215.078 122.152 215.302 122.25 215.5 122.389C215.699 122.528 215.868 122.705 215.998 122.909C216.128 123.113 216.216 123.341 216.258 123.58C216.3 123.819 216.294 124.063 216.242 124.299Z" fill="#FEC272"/>
<path d="M243.042 123.604L244.342 177.704C244.34 177.817 244.315 177.928 244.268 178.031C244.22 178.134 244.152 178.226 244.068 178.301C243.983 178.377 243.884 178.433 243.776 178.468C243.668 178.503 243.554 178.515 243.442 178.504C243.251 178.47 243.078 178.372 242.951 178.227C242.824 178.081 242.75 177.897 242.742 177.704L239.042 123.604C239.034 123.312 239.09 123.023 239.207 122.756C239.325 122.489 239.499 122.252 239.719 122.06C239.939 121.869 240.199 121.729 240.479 121.65C240.76 121.571 241.054 121.555 241.342 121.604C241.809 121.697 242.231 121.945 242.539 122.308C242.848 122.671 243.025 123.128 243.042 123.604Z" fill="#FEC272"/>
<path d="M139.143 74.5036C138.136 73.3235 137.295 72.0114 136.643 70.6036L134.343 55.2036L139.643 60.1036L139.143 74.5036Z" fill="#55BB77"/>
<path d="M288.343 79.7036C285.536 85.0328 282.002 89.9464 277.843 94.3036C268.843 103.904 253.643 114.804 231.043 114.804C215.143 114.804 203.343 109.504 194.943 103.104C187.037 97.1232 180.719 89.2943 176.543 80.3036L288.343 79.7036Z" fill="#016D25"/>
<path d="M288.343 79.7036C285.536 85.0328 282.002 89.9464 277.843 94.3036C268.49 97.8055 258.756 100.189 248.843 101.404C225.643 104.504 207.543 104.304 194.943 103.104C187.037 97.1232 180.719 89.2943 176.543 80.3036L288.343 79.7036Z" fill="#004016"/>
<path d="M323.543 54.6033C323.007 59.3583 322.138 64.0699 320.943 68.7033C320.604 69.9805 320.064 71.1957 319.343 72.3033C317.243 75.7033 313.243 79.4033 306.743 82.9033C305.643 83.5033 304.343 84.1033 303.043 84.7033C302.043 85.2033 301.043 85.6033 299.943 86.1033C298.443 86.7033 296.943 87.3033 295.343 87.9033C288.807 90.1296 282.124 91.9005 275.343 93.2033C274.743 93.3033 274.243 93.4033 273.643 93.5033C272.143 93.8033 270.343 94.0033 268.443 94.2033C260.443 95.1033 249.843 95.7033 238.543 95.9033C236.443 95.9033 234.343 96.0033 232.243 96.0033C221.543 96.1033 210.743 95.8033 201.343 95.3033C199.343 95.2033 197.343 95.1033 195.543 94.9033C190.913 94.6093 186.305 94.0416 181.743 93.2033C176.643 92.2033 172.043 91.1033 167.943 89.9033C166.243 89.4033 164.643 88.9033 163.043 88.4033C150.643 84.3033 143.143 79.3033 139.243 74.7033C138.68 74.0863 138.178 73.4165 137.743 72.7033C137.332 72.1137 136.996 71.4755 136.743 70.8033C136.421 70.1708 136.186 69.4982 136.043 68.8033C135.19 65.3804 134.555 61.9068 134.143 58.4033C133.743 55.1033 133.643 52.9033 133.643 52.9033L228.643 60.0033L323.643 54.7033L323.543 54.6033Z" fill="#8AD0A2"/>
<path d="M323.443 54.4035C323.271 55.428 322.781 56.3724 322.043 57.1035C319.543 60.0035 313.543 64.3035 303.343 68.2035C302.043 68.7035 300.643 69.2035 299.143 69.7035C298.443 69.9035 297.743 70.2035 297.043 70.4035C295.543 70.9035 293.943 71.4035 292.243 71.8035C285.708 73.6351 279.061 75.0381 272.343 76.0035C270.543 76.3035 268.643 76.6035 266.643 76.8035C257.254 77.9928 247.806 78.6605 238.343 78.8035C236.343 78.8035 234.243 78.9035 232.143 78.9035H232.043C221.343 78.9035 211.443 78.4035 202.543 77.6035C200.543 77.4035 198.543 77.2035 196.643 77.0035C187.892 76.04 179.209 74.5372 170.643 72.5035C168.943 72.1035 167.243 71.6035 165.643 71.2035C150.743 67.1035 140.943 62.0035 136.443 57.8035C135.656 57.0839 134.952 56.279 134.343 55.4035C133.798 54.6798 133.484 53.8084 133.443 52.9035C133.443 45.8035 161.443 30.7035 232.543 30.7035C303.643 30.6035 323.443 49.5035 323.443 54.4035Z" fill="#016D25"/>
<path d="M191.543 38.8033L139.543 60.1033C137.559 58.7223 135.775 57.0734 134.243 55.2033L189.843 37.9033L191.543 38.8033Z" fill="#004016"/>
<path d="M323.443 54.5034C323.243 55.4892 322.756 56.3938 322.043 57.1034L268.643 38.8034L270.343 38.0034L323.443 54.5034Z" fill="#004016"/>
<path d="M200.343 44.3036L170.643 72.4036C168.943 72.0036 167.243 71.5036 165.643 71.1036L198.543 44.2036L200.343 44.3036Z" fill="#004016"/>
<path d="M216.643 47.6034L202.543 77.6034C200.543 77.4034 198.543 77.2034 196.643 77.0034L214.843 47.5034L216.643 47.6034Z" fill="#004016"/>
<path d="M272.443 76.1034C270.643 76.4034 268.643 76.7034 266.743 76.9034L252.943 47.6034L254.843 47.5034L272.443 76.1034Z" fill="#004016"/>
<path d="M238.343 78.9033C236.343 78.9033 234.243 79.0033 232.143 79.0033H232.043L234.443 49.5033L236.343 49.4033L238.343 78.9033Z" fill="#004016"/>
<path d="M303.243 68.2036C301.943 68.7036 300.543 69.2036 299.043 69.7036L263.143 44.3036L265.043 44.2036L303.243 68.2036Z" fill="#004016"/>
<path d="M238.443 95.7037C236.343 95.7037 234.243 95.8037 232.143 95.8037V78.9037L238.343 78.8037L238.443 95.7037Z" fill="#55BB77"/>
<path d="M273.443 93.3034C271.843 93.6034 270.143 93.8034 268.243 94.0034L266.643 76.8034L272.343 76.0034L273.443 93.3034Z" fill="#55BB77"/>
<path d="M306.643 82.8036C305.543 83.4036 304.243 84.0036 302.943 84.6036L299.143 69.6036L303.243 68.2036L306.643 82.8036Z" fill="#55BB77"/>
<path d="M202.543 77.6034L201.343 95.1034C199.343 95.0034 197.343 94.9034 195.543 94.7034L196.743 77.0034L202.543 77.6034Z" fill="#55BB77"/>
<path d="M170.643 72.4035L167.843 89.7035C166.143 89.2035 164.543 88.7035 162.943 88.2035L165.543 71.1035L170.643 72.4035Z" fill="#55BB77"/>
<path d="M139.643 60.3037L137.643 72.6037C137.233 72.0141 136.897 71.3759 136.643 70.7037C136.322 70.0712 136.086 69.3986 135.943 68.7037C135.09 65.2808 134.455 61.8072 134.043 58.3037L134.343 55.3037C134.343 55.3037 136.043 57.3037 136.743 58.0037C137.343 58.6037 139.643 60.3037 139.643 60.3037Z" fill="#55BB77"/>
<path d="M227.843 61.4036C257.28 61.4036 281.143 54.6431 281.143 46.3036C281.143 37.9641 257.28 31.2036 227.843 31.2036C198.406 31.2036 174.543 37.9641 174.543 46.3036C174.543 54.6431 198.406 61.4036 227.843 61.4036Z" fill="#004016"/>
<path d="M276.543 43.9034C276.543 43.9034 272.643 48.3034 263.043 52.1034C255.943 54.9034 245.743 57.3034 231.743 57.3034C225.034 57.3477 218.336 56.7449 211.743 55.5034C193.043 51.9034 184.943 44.1034 184.943 44.1034C184.943 44.1034 189.043 13.7034 214.643 3.40342C220.566 1.08304 226.882 -0.0714334 233.243 0.00342015C268.443 0.00342015 276.543 43.9034 276.543 43.9034Z" fill="#8AD0A2"/>
<path d="M211.743 55.5033C193.043 51.9033 184.943 44.1033 184.943 44.1033C184.943 44.1033 189.043 13.7033 214.643 3.40332C209.643 7.60332 204.743 16.0033 203.943 29.7033C203.143 39.9033 205.543 48.4033 211.743 55.5033Z" fill="#55BB77"/>
<path d="M276.543 43.9034C276.543 43.9034 272.643 48.3034 263.043 52.1034C262.042 48.4804 260.772 44.9372 259.243 41.5034C259.243 41.5034 249.843 43.5034 245.643 34.6034C241.443 25.7034 251.543 19.3034 251.543 19.3034C251.543 19.3034 249.143 11.6034 236.743 6.60342C224.343 1.60342 214.443 3.40342 214.443 3.40342C220.366 1.08304 226.682 -0.0714334 233.043 0.00342015C268.443 0.00342015 276.543 43.9034 276.543 43.9034Z" fill="#B0DFC0"/>
<path d="M236.243 25.1033C237.734 25.1033 238.943 23.9393 238.943 22.5033C238.943 21.0674 237.734 19.9033 236.243 19.9033C234.752 19.9033 233.543 21.0674 233.543 22.5033C233.543 23.9393 234.752 25.1033 236.243 25.1033Z" fill="#B0DFC0"/>
<path d="M226.843 27.6035C228.003 27.6035 228.943 26.7081 228.943 25.6035C228.943 24.4989 228.003 23.6035 226.843 23.6035C225.683 23.6035 224.743 24.4989 224.743 25.6035C224.743 26.7081 225.683 27.6035 226.843 27.6035Z" fill="#B0DFC0"/>
<path d="M233.143 41.1035C235.407 41.1035 237.243 39.3127 237.243 37.1035C237.243 34.8944 235.407 33.1035 233.143 33.1035C230.879 33.1035 229.043 34.8944 229.043 37.1035C229.043 39.3127 230.879 41.1035 233.143 41.1035Z" fill="#B0DFC0"/>
</g>
<defs>
<clipPath id="clip0_4841_38968">
<rect width="453.287" height="232.503" fill="white" transform="translate(0.356445)"/>
</clipPath>
</defs>
</svg>
