<svg width="326" height="289" viewBox="0 0 326 289" fill="none" xmlns="http://www.w3.org/2000/svg">
<path d="M169.006 288.319C245.683 288.319 307.843 226.334 307.843 149.872C307.843 73.4104 245.683 11.4258 169.006 11.4258C92.329 11.4258 30.1699 73.4104 30.1699 149.872C30.1699 226.334 92.329 288.319 169.006 288.319Z" fill="#F9FFFB"/>
<g filter="url(#filter0_d_3060_216658)">
<path d="M302.535 103.631V235.392C302.535 235.95 302.535 236.228 302.535 236.785C302.256 244.307 298.624 250.992 293.317 255.449C288.568 259.628 282.422 262.135 275.718 262.135H63.1333C58.3843 262.135 54.1941 261.02 50.2832 258.792C48.6071 257.956 46.931 256.842 45.5343 255.449C42.4615 252.942 39.9473 249.599 38.5506 245.699C37.4332 242.914 36.5951 240.128 36.5951 237.064V103.631C36.5951 103.631 47.7691 94.1602 63.692 81.0677C80.1736 67.1395 101.963 49.3113 120.958 33.4332C131.853 24.2405 130.736 25.3548 147.497 11.148C160.347 0.283996 179.063 0.283996 191.913 11.148C195.265 13.9337 198.617 16.9979 201.97 19.7835C208.953 25.3548 216.775 32.0403 224.876 38.7259C241.917 52.9327 260.633 68.5323 275.438 80.7891C290.523 93.3245 301.418 102.517 302.535 103.631Z" fill="#48D175"/>
</g>
<path d="M275.441 80.7896V128.146L229.069 156.002L215.101 164.359L185.77 181.908L171.802 190.265L165.936 193.887L160.349 190.265L147.22 181.908L119.285 164.359L106.155 156.002L63.1357 128.981V81.0681C79.6173 67.1399 101.406 49.3118 120.402 33.4336L224.32 38.7263C242.198 52.9331 260.915 68.5327 275.441 80.7896Z" fill="#5BEB8B"/>
<path d="M266.218 43.179V126.191L223.757 151.541L211.186 159.062L184.369 174.94L171.798 182.461L166.491 185.525L161.462 182.461L149.45 174.94L124.03 159.062L112.018 151.541L72.9088 127.027V43.179C72.9088 34.5435 79.8925 27.3008 88.8317 27.3008H250.295C258.955 27.3008 266.218 34.5435 266.218 43.179Z" fill="white"/>
<path d="M231.579 88.8623H112.297C110.342 88.8623 108.666 87.1909 108.666 84.9624C108.666 82.7339 110.342 81.0625 112.297 81.0625H231.579C233.535 81.0625 235.211 82.7339 235.211 84.9624C235.211 87.1909 233.535 88.8623 231.579 88.8623Z" fill="#E9F7EE"/>
<path d="M231.579 112.261H112.297C110.342 112.261 108.666 110.589 108.666 108.361C108.666 106.132 110.342 104.461 112.297 104.461H231.579C233.535 104.461 235.211 106.132 235.211 108.361C235.211 110.589 233.535 112.261 231.579 112.261Z" fill="#E9F7EE"/>
<path d="M231.579 135.659H112.297C110.342 135.659 108.666 133.988 108.666 131.759C108.666 129.531 110.342 127.859 112.297 127.859H231.579C233.535 127.859 235.211 129.531 235.211 131.759C235.211 133.988 233.535 135.659 231.579 135.659Z" fill="#E9F7EE"/>
<path d="M223.759 151.547L211.188 159.068H124.031L112.019 151.547H112.299H223.759Z" fill="#E9F7EE"/>
<path d="M184.366 174.934L171.796 182.733H161.46L149.448 174.934H184.366Z" fill="#E9F7EE"/>
<path d="M205.878 62.1201H138.276C136.32 62.1201 134.644 60.4487 134.644 58.2202C134.644 55.9917 136.32 54.3203 138.276 54.3203H205.878C207.833 54.3203 209.509 55.9917 209.509 58.2202C209.509 60.4487 207.833 62.1201 205.878 62.1201Z" fill="#003434"/>
<path opacity="0.67" d="M37.7147 103.07L165.377 111.427L300.582 103.07L295.554 127.305C295.554 127.305 168.45 193.604 169.288 193.604C170.126 193.604 37.9941 115.049 37.9941 115.049L37.7147 103.07Z" fill="url(#paint0_linear_3060_216658)"/>
<path d="M302.535 103.633V236.787C302.256 244.308 298.624 250.993 293.317 255.45C288.568 259.629 282.422 262.136 275.718 262.136H63.1333C58.3843 262.136 54.1941 261.022 50.2832 258.793C48.6071 257.958 46.931 256.843 45.5343 255.45C42.4615 252.943 39.9473 249.601 38.5506 245.701C37.4332 242.915 36.5951 240.129 36.5951 237.065V236.787V103.633L155.598 178.01L165.934 184.417L169.565 182.188L172.917 180.238L302.535 103.633Z" fill="#0CE053"/>
<path d="M293.596 255.45C288.847 259.629 282.701 262.136 275.997 262.136H63.1333C58.3843 262.136 54.1941 261.022 50.2832 258.793C48.6071 257.958 46.931 256.843 45.5343 255.45C42.4615 252.943 39.9473 249.601 38.5506 245.701C37.4332 242.915 36.5951 240.129 36.5951 237.065V236.787V103.633L50.5626 111.99L169.565 182.467L172.917 184.417L173.197 184.695L279.908 247.651L293.596 255.45Z" fill="url(#paint1_linear_3060_216658)"/>
<path d="M172.92 180.237V189.429L50.2857 258.792C48.6096 257.956 46.9335 256.842 45.5368 255.449C42.4639 252.942 39.9498 249.599 38.5531 245.699L157.835 175.223L168.171 181.63L169.568 182.187L172.92 180.237Z" fill="url(#paint2_linear_3060_216658)"/>
<path d="M36.5951 103.633L169.565 182.467" stroke="#BCFFD3" stroke-width="0.5" stroke-miterlimit="10"/>
<path d="M302.537 103.633V236.787C302.257 244.308 298.626 250.993 293.318 255.45C288.569 259.629 282.424 262.136 275.719 262.136H63.1347C58.3858 262.136 54.1956 261.022 50.2847 258.793C48.6086 257.958 46.9325 256.843 45.5357 255.45L59.2238 247.372L165.935 184.417L169.567 182.188L172.919 180.238L288.569 111.711L302.537 103.633Z" fill="url(#paint3_linear_3060_216658)"/>
<path d="M302.537 103.633L172.919 180.238L169.567 182.188L165.935 184.417L45.5357 255.45" stroke="#9DFFBE" stroke-width="0.5" stroke-miterlimit="10"/>
<path d="M270.69 196.675H200.015C198.339 196.675 196.942 195.282 196.942 193.611C196.942 191.94 198.339 190.547 200.015 190.547H270.69C272.366 190.547 273.763 191.94 273.763 193.611C273.763 195.282 272.366 196.675 270.69 196.675Z" fill="url(#paint4_linear_3060_216658)"/>
<path d="M270.69 217.007H200.015C198.339 217.007 196.942 215.615 196.942 213.943C196.942 212.272 198.339 210.879 200.015 210.879H270.69C272.366 210.879 273.763 212.272 273.763 213.943C273.763 215.615 272.366 217.007 270.69 217.007Z" fill="url(#paint5_linear_3060_216658)"/>
<path d="M315.386 91.1006C321.249 91.1006 326.001 86.3613 326.001 80.5151C326.001 74.669 321.249 69.9297 315.386 69.9297C309.523 69.9297 304.771 74.669 304.771 80.5151C304.771 86.3613 309.523 91.1006 315.386 91.1006Z" fill="#F5FFF9"/>
<path d="M36.3152 52.3735C40.1722 52.3735 43.299 49.2556 43.299 45.4094C43.299 41.5633 40.1722 38.4453 36.3152 38.4453C32.4582 38.4453 29.3315 41.5633 29.3315 45.4094C29.3315 49.2556 32.4582 52.3735 36.3152 52.3735Z" fill="#F5FFF9"/>
<path d="M4.74893 70.2017C7.37169 70.2017 9.49786 68.0815 9.49786 65.4661C9.49786 62.8507 7.37169 60.7305 4.74893 60.7305C2.12617 60.7305 0 62.8507 0 65.4661C0 68.0815 2.12617 70.2017 4.74893 70.2017Z" fill="#F5FFF9"/>
<path d="M303.091 46.2422C305.559 46.2422 307.56 44.2467 307.56 41.7852C307.56 39.3236 305.559 37.3281 303.091 37.3281C300.622 37.3281 298.621 39.3236 298.621 41.7852C298.621 44.2467 300.622 46.2422 303.091 46.2422Z" fill="#F5FFF9"/>
<path d="M320.972 191.383C323.44 191.383 325.442 189.387 325.442 186.926C325.442 184.464 323.44 182.469 320.972 182.469C318.503 182.469 316.502 184.464 316.502 186.926C316.502 189.387 318.503 191.383 320.972 191.383Z" fill="#F5FFF9"/>
<path opacity="0.3" d="M288.568 111.711V125.639L302.536 118.675V103.633L288.568 111.711ZM288.568 180.517V203.08L302.536 196.116V173.553L288.568 180.517ZM288.568 218.959V236.23C288.289 238.179 287.73 240.408 286.613 242.079C286.333 242.358 286.333 242.637 286.054 242.915L302.536 234.558V211.994L288.568 218.959ZM285.216 259.35L281.026 261.579C285.775 260.743 289.685 258.515 293.317 255.729C293.317 255.729 293.317 255.729 293.596 255.729C293.876 255.729 293.876 255.45 294.155 255.172L285.216 259.35ZM36.5954 218.123V236.787V237.065C36.5954 238.179 36.8748 239.294 37.1541 240.408L50.5629 233.444V210.88L36.5954 218.123ZM36.5954 140.682V163.246L50.5629 156.282V133.718L36.5954 140.682ZM36.5954 103.633V124.804L50.5629 117.84V111.99L36.5954 103.633ZM36.5954 179.402V201.966L50.5629 195.002V172.438L36.5954 179.402ZM63.1336 248.208C61.7368 248.208 60.3401 247.929 59.2227 247.651C58.3846 247.372 57.8259 247.094 56.9879 246.815C56.9879 246.815 56.9879 246.815 56.7085 246.815L43.2998 253.779C44.1378 254.615 44.6965 255.172 45.5346 256.008C46.9313 257.4 48.6074 258.236 50.2835 259.35C51.4009 260.186 52.7977 260.743 54.1944 261.022L80.1738 248.486H63.1336V248.208ZM115.372 248.208L86.0402 262.136H117.886L147.218 248.208H115.372ZM181.857 248.208L152.525 262.136H184.371L213.703 248.208H181.857ZM248.621 248.208L219.29 262.136H244.99L274.321 248.208H248.621ZM288.568 141.796V164.36L302.536 157.396V134.832L288.568 141.796Z" fill="#48D175"/>
<path d="M285.213 259.355L293.873 254.898C293.593 255.177 293.593 255.177 293.314 255.456C293.314 255.456 293.314 255.456 293.035 255.456L285.213 259.355Z" fill="#48D175"/>
<defs>
<filter id="filter0_d_3060_216658" x="28.5951" y="0" width="281.94" height="275.133" filterUnits="userSpaceOnUse" color-interpolation-filters="sRGB">
<feFlood flood-opacity="0" result="BackgroundImageFix"/>
<feColorMatrix in="SourceAlpha" type="matrix" values="0 0 0 0 0 0 0 0 0 0 0 0 0 0 0 0 0 0 127 0" result="hardAlpha"/>
<feOffset dy="5"/>
<feGaussianBlur stdDeviation="4"/>
<feColorMatrix type="matrix" values="0 0 0 0 0.00392157 0 0 0 0 0.6 0 0 0 0 0.203922 0 0 0 0.22 0"/>
<feBlend mode="normal" in2="BackgroundImageFix" result="effect1_dropShadow_3060_216658"/>
<feBlend mode="normal" in="SourceGraphic" in2="effect1_dropShadow_3060_216658" result="shape"/>
</filter>
<linearGradient id="paint0_linear_3060_216658" x1="168.987" y1="222.115" x2="168.987" y2="109.065" gradientUnits="userSpaceOnUse">
<stop stop-color="#3AEA75"/>
<stop offset="1" stop-color="#3AEA75" stop-opacity="0"/>
</linearGradient>
<linearGradient id="paint1_linear_3060_216658" x1="39.5825" y1="182.811" x2="298.941" y2="182.811" gradientUnits="userSpaceOnUse">
<stop stop-color="#82FEAC"/>
<stop offset="1" stop-color="#2BF76F"/>
</linearGradient>
<linearGradient id="paint2_linear_3060_216658" x1="113.437" y1="224.683" x2="103.02" y2="209.437" gradientUnits="userSpaceOnUse">
<stop stop-color="#51EA84"/>
<stop offset="1" stop-color="#07BF45" stop-opacity="0"/>
<stop offset="1" stop-color="#4BF985" stop-opacity="0"/>
</linearGradient>
<linearGradient id="paint3_linear_3060_216658" x1="291.634" y1="182.811" x2="37.2117" y2="182.811" gradientUnits="userSpaceOnUse">
<stop stop-color="#61FA94"/>
<stop offset="1" stop-color="#3FFA7E"/>
</linearGradient>
<linearGradient id="paint4_linear_3060_216658" x1="196.764" y1="193.623" x2="273.759" y2="193.623" gradientUnits="userSpaceOnUse">
<stop stop-color="#6AFC9B"/>
<stop offset="1" stop-color="#40F47D"/>
</linearGradient>
<linearGradient id="paint5_linear_3060_216658" x1="196.764" y1="213.83" x2="273.759" y2="213.83" gradientUnits="userSpaceOnUse">
<stop stop-color="#8BFFB2"/>
<stop offset="1" stop-color="#4BFF88"/>
</linearGradient>
</defs>
</svg>
