<svg width="214" height="213" viewBox="0 0 214 213" fill="none" xmlns="http://www.w3.org/2000/svg">
<path d="M64.823 56.206C64.823 56.206 87.6626 73.5381 122.385 41.1302C153.221 12.3495 178.399 57.759 178.576 79.5048C178.804 107.674 147.739 130.214 162.815 148.716C177.891 167.218 132.918 197.771 108.68 171.329C78.5281 138.437 70.3598 165.162 53.1737 165.162C40.8389 165.162 15.5146 134.514 32.6159 111.712C47.0063 92.5246 39.158 86.1568 35.3574 79.5048C29.8749 69.9112 42.8948 43.8714 64.823 56.206Z" fill="#E6F5EB"/>
<path d="M156.516 94.5073C157.744 94.9634 159.086 94.9938 160.362 94.7008C165.71 93.4733 184.099 90.2231 180.903 104.473C180.207 107.3 169.438 123.133 184.775 128.912C185.899 129.341 187.088 129.575 188.29 129.604C193.012 129.702 202.37 128.587 206.287 124.6C211.018 119.784 205.849 122.068 205.849 122.068C205.849 122.068 187.862 129.917 181.509 121.59C180.802 120.663 180.352 119.317 180.223 118.159C179.999 116.15 180.891 113.496 182.063 111.185C183.649 108.058 191.262 93.9903 174.733 89.8922C170.925 88.9855 165.395 88.171 158.264 91.1732C154.105 92.9243 155.026 93.9536 156.516 94.5073Z" fill="#8AD0A2"/>
<path d="M160.197 89.2554L155.41 91.0471C153.757 91.6656 152.919 93.5067 153.537 95.1593L153.775 95.7933C154.393 97.4459 156.234 98.2842 157.887 97.6657L162.674 95.874C164.327 95.2555 165.165 93.4144 164.547 91.7618L164.309 91.1277C163.691 89.4752 161.85 88.6369 160.197 89.2554Z" fill="#06C044"/>
<path d="M130.811 94.4402L115.023 100.349C114.196 100.658 113.777 101.579 114.086 102.405L114.149 102.571C114.458 103.398 115.378 103.817 116.205 103.508L131.993 97.5986C132.819 97.2894 133.239 96.3689 132.929 95.5426L132.867 95.3764C132.558 94.5501 131.637 94.1309 130.811 94.4402Z" fill="white"/>
<path d="M135.217 106.214L119.429 112.123C118.602 112.432 118.183 113.352 118.493 114.179L118.555 114.345C118.864 115.171 119.785 115.59 120.611 115.281L136.399 109.372C137.226 109.063 137.645 108.142 137.336 107.316L137.273 107.15C136.964 106.323 136.044 105.904 135.217 106.214Z" fill="white"/>
<path d="M149.794 86.4054L136.998 91.1945C135.345 91.8131 134.507 93.6541 135.126 95.3067L139.494 106.98C140.113 108.633 141.954 109.471 143.607 108.852L156.403 104.063C158.055 103.445 158.894 101.604 158.275 99.951L153.906 88.2778C153.288 86.6252 151.447 85.7869 149.794 86.4054Z" fill="#34AD5D"/>
<path d="M138.32 89.4679L125.524 94.257C123.871 94.8756 123.033 96.7167 123.651 98.3693L128.863 112.296C129.482 113.949 131.323 114.787 132.976 114.168L145.772 109.379C147.424 108.761 148.263 106.92 147.644 105.267L142.432 91.3403C141.814 89.6877 139.972 88.8494 138.32 89.4679Z" fill="#55BB77"/>
<path d="M140.323 86.6416L140.223 86.6792C139.121 87.0915 138.562 88.3189 138.975 89.4206L146.276 108.93C146.689 110.032 147.916 110.591 149.018 110.179L149.118 110.141C150.22 109.729 150.779 108.501 150.366 107.4L143.065 87.8899C142.652 86.7882 141.425 86.2293 140.323 86.6416Z" fill="#08AE40"/>
<path d="M9.84281 99.1152C9.84281 99.1152 35.5421 91.893 31.811 108.532C31.1631 111.165 21.8359 124.721 32.946 131.23C35.3316 132.628 38.0846 133.247 40.8492 133.232C45.8061 133.206 53.6642 132.252 57.1943 128.659C61.9255 123.843 56.7568 126.127 56.7568 126.127C56.7568 126.127 41.9973 132.198 34.4041 127.359C31.8113 125.706 30.6361 122.507 31.3402 119.514C31.7 118.027 32.248 116.592 32.9709 115.244C34.6223 112.151 42.1695 98.0494 25.6407 93.9513C21.8331 93.0446 16.3029 92.2301 9.17218 95.2323C2.04148 98.2345 9.84281 99.1152 9.84281 99.1152Z" fill="#8AD0A2"/>
<path d="M60.65 122.404L55.8627 124.196C54.2101 124.814 53.3718 126.655 53.9903 128.308L54.2276 128.942C54.8461 130.594 56.6872 131.433 58.3398 130.814L63.1271 129.022C64.7797 128.404 65.618 126.563 64.9995 124.91L64.7622 124.276C64.1437 122.624 62.3026 121.785 60.65 122.404Z" fill="#06C044"/>
<path d="M68.7383 114.527L61.6432 117.182C59.9906 117.801 59.1523 119.642 59.7708 121.295L63.192 130.436C63.8105 132.088 65.6516 132.927 67.3042 132.308L74.3993 129.653C76.0519 129.034 76.8902 127.193 76.2717 125.541L72.8505 116.399C72.232 114.747 70.3909 113.908 68.7383 114.527Z" fill="#34AD5D"/>
<path d="M80.5504 107.489L69.9696 111.449C68.317 112.067 67.4787 113.909 68.0972 115.561L73.3094 129.488C73.9279 131.14 75.769 131.979 77.4216 131.36L88.0025 127.4C89.655 126.782 90.4933 124.941 89.8748 123.288L84.6626 109.361C84.0441 107.709 82.203 106.87 80.5504 107.489Z" fill="#55BB77"/>
<path d="M82.7915 104.605L82.6912 104.643C81.5894 105.055 81.0306 106.282 81.4429 107.384L88.7447 126.894C89.157 127.995 90.3844 128.554 91.4861 128.142L91.5865 128.104C92.6882 127.692 93.2471 126.465 92.8347 125.363L85.533 105.853C85.1206 104.752 83.8932 104.193 82.7915 104.605Z" fill="#08AE40"/>
<path d="M109.81 92.1758C109.429 92.1336 109.079 91.9451 108.834 91.6501C108.589 91.3551 108.468 90.9766 108.497 90.5943L109.287 76.1742C109.334 75.3128 110.061 74.6584 110.886 74.7345L112.037 74.841C112.862 74.9172 113.453 75.693 113.338 76.5483L111.398 90.862C111.353 91.2432 111.163 91.5926 110.867 91.8374C110.572 92.0821 110.193 92.2033 109.81 92.1758V92.1758Z" fill="#019934"/>
<path d="M102.993 93.4189C102.875 93.4537 102.751 93.4649 102.628 93.4517C102.505 93.4385 102.386 93.4012 102.278 93.342C102.169 93.2829 102.073 93.2029 101.996 93.1067C101.918 93.0105 101.861 92.9 101.826 92.7815L99.0065 83.8114C98.9245 83.5563 98.9471 83.2791 99.0693 83.0406C99.1914 82.8021 99.4032 82.6218 99.6581 82.5393L100.388 82.3191C100.513 82.2825 100.645 82.2723 100.774 82.2891C100.904 82.3059 101.028 82.3494 101.14 82.4167C101.251 82.4841 101.348 82.5739 101.423 82.6804C101.499 82.787 101.551 82.908 101.577 83.0358L103.667 92.2262C103.725 92.4732 103.688 92.7332 103.563 92.9542C103.438 93.1752 103.235 93.3411 102.993 93.4189V93.4189Z" fill="#019934"/>
<path d="M99.189 98.5917C98.6838 99.2176 97.6679 99.2102 96.8859 98.5748L83.0015 87.2941C82.1722 86.6203 81.9275 85.505 82.4634 84.8415L83.2103 83.9162C83.7462 83.2524 84.8468 83.3068 85.6316 84.0359L98.7692 96.2419C99.509 96.9293 99.6941 97.9658 99.189 98.5917Z" fill="#019934"/>
<path d="M105.607 127.729C105.964 127.867 106.255 128.138 106.416 128.486C106.577 128.834 106.598 129.231 106.472 129.593L102.026 143.333C101.761 144.154 100.89 144.6 100.112 144.316L99.0263 143.92C98.2477 143.635 97.874 142.734 98.2045 141.937L103.736 128.593C103.876 128.236 104.149 127.947 104.498 127.785C104.846 127.624 105.244 127.604 105.607 127.729V127.729Z" fill="#019934"/>
<path d="M112.515 128.267C112.639 128.264 112.762 128.285 112.877 128.329C112.992 128.373 113.098 128.44 113.188 128.525C113.277 128.609 113.35 128.711 113.4 128.824C113.45 128.937 113.478 129.058 113.481 129.182L113.916 138.575C113.93 138.842 113.838 139.104 113.659 139.304C113.48 139.503 113.229 139.623 112.961 139.638L112.199 139.665C112.069 139.668 111.939 139.644 111.818 139.595C111.698 139.546 111.588 139.472 111.497 139.378C111.407 139.285 111.336 139.173 111.291 139.051C111.245 138.929 111.225 138.798 111.233 138.668L111.56 129.249C111.567 128.995 111.669 128.753 111.846 128.571C112.023 128.39 112.262 128.281 112.515 128.267V128.267Z" fill="#019934"/>
<path d="M117.514 124.238C118.163 123.762 119.143 124.028 119.737 124.842L130.28 139.294C130.91 140.158 130.862 141.298 130.173 141.803L129.215 142.507C128.527 143.012 127.477 142.678 126.905 141.773L117.319 126.616C116.781 125.763 116.866 124.714 117.514 124.238Z" fill="#019934"/>
</svg>
